<?xml version="1.0" encoding="UTF-8" standalone="no"?>
<!DOCTYPE svg PUBLIC "-//W3C//DTD SVG 1.1//EN"
 "http://www.w3.org/Graphics/SVG/1.1/DTD/svg11.dtd">
<!-- Generated by graphviz version 2.38.0 (20140413.2041)
 -->
<!-- Title: %3 Pages: 1 -->
<svg width="1798pt" height="1280pt"
 viewBox="0.00 0.00 1798.13 1279.74" xmlns="http://www.w3.org/2000/svg" xmlns:xlink="http://www.w3.org/1999/xlink">
<g id="graph0" class="graph" transform="scale(1 1) rotate(0) translate(522.047 683.97)">
<title>%3</title>
<polygon fill="white" stroke="none" points="-522.047,595.773 -522.047,-683.97 1276.08,-683.97 1276.08,595.773 -522.047,595.773"/>
<!-- 1 -->
<g id="node1" class="node"><title>1</title>
<ellipse fill="none" stroke="black" cx="976.882" cy="-322.325" rx="27" ry="18"/>
<text text-anchor="middle" x="976.882" y="-318.625" font-family="Times New Roman,serif" font-size="14.00">1</text>
</g>
<!-- Webster_Pecan_Before -->
<g id="node2" class="node"><title>Webster_Pecan_Before</title>
<ellipse fill="none" stroke="black" cx="949.264" cy="-464.67" rx="97.4827" ry="18"/>
<text text-anchor="middle" x="949.264" y="-460.97" font-family="Times New Roman,serif" font-size="14.00">Webster_Pecan_Before</text>
</g>
<!-- 1&#45;&#45;Webster_Pecan_Before -->
<g id="edge1" class="edge"><title>1&#45;&#45;Webster_Pecan_Before</title>
<path fill="none" stroke="black" d="M973.384,-340.353C968.101,-367.584 958.139,-418.93 952.821,-446.338"/>
</g>
<!-- Wayne_Pecan_Before -->
<g id="node3" class="node"><title>Wayne_Pecan_Before</title>
<ellipse fill="none" stroke="black" cx="832.554" cy="-293.962" rx="92.0841" ry="18"/>
<text text-anchor="middle" x="832.554" y="-290.262" font-family="Times New Roman,serif" font-size="14.00">Wayne_Pecan_Before</text>
</g>
<!-- 1&#45;&#45;Wayne_Pecan_Before -->
<g id="edge2" class="edge"><title>1&#45;&#45;Wayne_Pecan_Before</title>
<path fill="none" stroke="black" d="M950.745,-317.189C935.879,-314.268 916.541,-310.467 897.827,-306.789"/>
</g>
<!-- 2 -->
<g id="node4" class="node"><title>2</title>
<ellipse fill="none" stroke="black" cx="-135.185" cy="0.936483" rx="27" ry="18"/>
<text text-anchor="middle" x="-135.185" y="4.63648" font-family="Times New Roman,serif" font-size="14.00">2</text>
</g>
<!-- Webster_Acorn_Before -->
<g id="node5" class="node"><title>Webster_Acorn_Before</title>
<ellipse fill="none" stroke="black" cx="-168.587" cy="-123.834" rx="98.5829" ry="18"/>
<text text-anchor="middle" x="-168.587" y="-120.134" font-family="Times New Roman,serif" font-size="14.00">Webster_Acorn_Before</text>
</g>
<!-- 2&#45;&#45;Webster_Acorn_Before -->
<g id="edge3" class="edge"><title>2&#45;&#45;Webster_Acorn_Before</title>
<path fill="none" stroke="black" d="M-139.97,-16.9401C-146.284,-40.5242 -157.338,-81.816 -163.701,-105.585"/>
</g>
<!-- Wayne_Acorn_Before -->
<g id="node6" class="node"><title>Wayne_Acorn_Before</title>
<ellipse fill="none" stroke="black" cx="-10.3922" cy="-70.6477" rx="92.8835" ry="18"/>
<text text-anchor="middle" x="-10.3922" y="-66.9477" font-family="Times New Roman,serif" font-size="14.00">Wayne_Acorn_Before</text>
</g>
<!-- 2&#45;&#45;Wayne_Acorn_Before -->
<g id="edge4" class="edge"><title>2&#45;&#45;Wayne_Acorn_Before</title>
<path fill="none" stroke="black" d="M-114.578,-10.8842C-94.3633,-22.4797 -63.3189,-40.2876 -40.3724,-53.4503"/>
</g>
<!-- 3 -->
<g id="node7" class="node"><title>3</title>
<ellipse fill="none" stroke="black" cx="339.304" cy="-18.1189" rx="27" ry="18"/>
<text text-anchor="middle" x="339.304" y="-14.4189" font-family="Times New Roman,serif" font-size="14.00">3</text>
</g>
<!-- Webster_Walnut_Before -->
<g id="node8" class="node"><title>Webster_Walnut_Before</title>
<ellipse fill="none" stroke="black" cx="323.77" cy="-154.577" rx="101.282" ry="18"/>
<text text-anchor="middle" x="323.77" y="-150.877" font-family="Times New Roman,serif" font-size="14.00">Webster_Walnut_Before</text>
</g>
<!-- 3&#45;&#45;Webster_Walnut_Before -->
<g id="edge5" class="edge"><title>3&#45;&#45;Webster_Walnut_Before</title>
<path fill="none" stroke="black" d="M337.241,-36.2395C334.27,-62.339 328.817,-110.24 325.841,-136.382"/>
</g>
<!-- Wayne_Walnut_Before -->
<g id="node9" class="node"><title>Wayne_Walnut_Before</title>
<ellipse fill="none" stroke="black" cx="470.495" cy="-51.8161" rx="96.3833" ry="18"/>
<text text-anchor="middle" x="470.495" y="-48.1161" font-family="Times New Roman,serif" font-size="14.00">Wayne_Walnut_Before</text>
</g>
<!-- 3&#45;&#45;Wayne_Walnut_Before -->
<g id="edge6" class="edge"><title>3&#45;&#45;Wayne_Walnut_Before</title>
<path fill="none" stroke="black" d="M364.599,-24.616C378.597,-28.2115 396.593,-32.8339 413.763,-37.2442"/>
</g>
<!-- 4 -->
<g id="node10" class="node"><title>4</title>
<ellipse fill="none" stroke="black" cx="799.173" cy="-442.098" rx="27" ry="18"/>
<text text-anchor="middle" x="799.173" y="-438.398" font-family="Times New Roman,serif" font-size="14.00">4</text>
</g>
<!-- 4&#45;&#45;Webster_Pecan_Before -->
<g id="edge7" class="edge"><title>4&#45;&#45;Webster_Pecan_Before</title>
<path fill="none" stroke="black" d="M825.661,-446.081C839.126,-448.106 856.246,-450.681 873.422,-453.264"/>
</g>
<!-- 4&#45;&#45;Wayne_Pecan_Before -->
<g id="edge8" class="edge"><title>4&#45;&#45;Wayne_Pecan_Before</title>
<path fill="none" stroke="black" d="M803.199,-424.229C809.581,-395.91 821.953,-341.004 828.408,-312.358"/>
</g>
<!-- Webster_Pecan_After -->
<g id="node11" class="node"><title>Webster_Pecan_After</title>
<ellipse fill="none" stroke="black" cx="806.071" cy="-584.163" rx="91.784" ry="18"/>
<text text-anchor="middle" x="806.071" y="-580.463" font-family="Times New Roman,serif" font-size="14.00">Webster_Pecan_After</text>
</g>
<!-- 4&#45;&#45;Webster_Pecan_After -->
<g id="edge9" class="edge"><title>4&#45;&#45;Webster_Pecan_After</title>
<path fill="none" stroke="black" d="M800.047,-460.09C801.366,-487.268 803.854,-538.513 805.183,-565.868"/>
</g>
<!-- Wayne_Pecan_After -->
<g id="node12" class="node"><title>Wayne_Pecan_After</title>
<ellipse fill="none" stroke="black" cx="654.813" cy="-471.37" rx="86.3847" ry="18"/>
<text text-anchor="middle" x="654.813" y="-467.67" font-family="Times New Roman,serif" font-size="14.00">Wayne_Pecan_After</text>
</g>
<!-- 4&#45;&#45;Wayne_Pecan_After -->
<g id="edge10" class="edge"><title>4&#45;&#45;Wayne_Pecan_After</title>
<path fill="none" stroke="black" d="M773.03,-447.399C757.349,-450.578 736.692,-454.767 717.039,-458.752"/>
</g>
<!-- 5 -->
<g id="node13" class="node"><title>5</title>
<ellipse fill="none" stroke="black" cx="-60.9673" cy="-210.066" rx="27" ry="18"/>
<text text-anchor="middle" x="-60.9673" y="-206.366" font-family="Times New Roman,serif" font-size="14.00">5</text>
</g>
<!-- 5&#45;&#45;Webster_Acorn_Before -->
<g id="edge11" class="edge"><title>5&#45;&#45;Webster_Acorn_Before</title>
<path fill="none" stroke="black" d="M-78.2582,-196.211C-96.7963,-181.357 -126.283,-157.73 -146.492,-141.538"/>
</g>
<!-- 5&#45;&#45;Wayne_Acorn_Before -->
<g id="edge12" class="edge"><title>5&#45;&#45;Wayne_Acorn_Before</title>
<path fill="none" stroke="black" d="M-54.5619,-192.409C-44.9399,-165.884 -26.8439,-115.999 -17.0666,-89.0468"/>
</g>
<!-- Webster_Acorn_After -->
<g id="node14" class="node"><title>Webster_Acorn_After</title>
<ellipse fill="none" stroke="black" cx="36.5952" cy="-315.475" rx="92.8835" ry="18"/>
<text text-anchor="middle" x="36.5952" y="-311.775" font-family="Times New Roman,serif" font-size="14.00">Webster_Acorn_After</text>
</g>
<!-- 5&#45;&#45;Webster_Acorn_After -->
<g id="edge13" class="edge"><title>5&#45;&#45;Webster_Acorn_After</title>
<path fill="none" stroke="black" d="M-46.5716,-225.62C-28.7619,-244.862 1.48954,-277.546 20.1829,-297.743"/>
</g>
<!-- Wayne_Acorn_After -->
<g id="node15" class="node"><title>Wayne_Acorn_After</title>
<ellipse fill="none" stroke="black" cx="-182.351" cy="-291.937" rx="87.1846" ry="18"/>
<text text-anchor="middle" x="-182.351" y="-288.237" font-family="Times New Roman,serif" font-size="14.00">Wayne_Acorn_After</text>
</g>
<!-- 5&#45;&#45;Wayne_Acorn_After -->
<g id="edge14" class="edge"><title>5&#45;&#45;Wayne_Acorn_After</title>
<path fill="none" stroke="black" d="M-80.2009,-223.039C-100.791,-236.926 -133.574,-259.038 -156.43,-274.454"/>
</g>
<!-- 6 -->
<g id="node16" class="node"><title>6</title>
<ellipse fill="none" stroke="black" cx="460.753" cy="-194.607" rx="27" ry="18"/>
<text text-anchor="middle" x="460.753" y="-190.907" font-family="Times New Roman,serif" font-size="14.00">6</text>
</g>
<!-- 6&#45;&#45;Webster_Walnut_Before -->
<g id="edge15" class="edge"><title>6&#45;&#45;Webster_Walnut_Before</title>
<path fill="none" stroke="black" d="M435.946,-187.358C419.37,-182.514 396.934,-175.958 376.484,-169.982"/>
</g>
<!-- 6&#45;&#45;Wayne_Walnut_Before -->
<g id="edge16" class="edge"><title>6&#45;&#45;Wayne_Walnut_Before</title>
<path fill="none" stroke="black" d="M461.987,-176.522C463.85,-149.206 467.365,-97.6996 469.241,-70.2048"/>
</g>
<!-- Webster_Walnut_After -->
<g id="node17" class="node"><title>Webster_Walnut_After</title>
<ellipse fill="none" stroke="black" cx="453.747" cy="-331.69" rx="95.5831" ry="18"/>
<text text-anchor="middle" x="453.747" y="-327.99" font-family="Times New Roman,serif" font-size="14.00">Webster_Walnut_After</text>
</g>
<!-- 6&#45;&#45;Webster_Walnut_After -->
<g id="edge17" class="edge"><title>6&#45;&#45;Webster_Walnut_After</title>
<path fill="none" stroke="black" d="M459.822,-212.811C458.482,-239.03 456.023,-287.15 454.681,-313.411"/>
</g>
<!-- Wayne_Walnut_After -->
<g id="node18" class="node"><title>Wayne_Walnut_After</title>
<ellipse fill="none" stroke="black" cx="601.982" cy="-172.662" rx="90.1842" ry="18"/>
<text text-anchor="middle" x="601.982" y="-168.962" font-family="Times New Roman,serif" font-size="14.00">Wayne_Walnut_After</text>
</g>
<!-- 6&#45;&#45;Wayne_Walnut_After -->
<g id="edge18" class="edge"><title>6&#45;&#45;Wayne_Walnut_After</title>
<path fill="none" stroke="black" d="M487.317,-190.479C499.702,-188.555 515.097,-186.163 530.544,-183.762"/>
</g>
<!-- 7 -->
<g id="node19" class="node"><title>7</title>
<ellipse fill="none" stroke="black" cx="1064.72" cy="-548.822" rx="27" ry="18"/>
<text text-anchor="middle" x="1064.72" y="-545.122" font-family="Times New Roman,serif" font-size="14.00">7</text>
</g>
<!-- 7&#45;&#45;Webster_Pecan_Before -->
<g id="edge19" class="edge"><title>7&#45;&#45;Webster_Pecan_Before</title>
<path fill="none" stroke="black" d="M1046.42,-535.488C1026.71,-521.121 995.252,-498.19 973.497,-482.332"/>
</g>
<!-- Wilson_Pecan_Before -->
<g id="node20" class="node"><title>Wilson_Pecan_Before</title>
<ellipse fill="none" stroke="black" cx="1179.14" cy="-618.012" rx="92.8835" ry="18"/>
<text text-anchor="middle" x="1179.14" y="-614.312" font-family="Times New Roman,serif" font-size="14.00">Wilson_Pecan_Before</text>
</g>
<!-- 7&#45;&#45;Wilson_Pecan_Before -->
<g id="edge20" class="edge"><title>7&#45;&#45;Wilson_Pecan_Before</title>
<path fill="none" stroke="black" d="M1084.91,-561.033C1103.13,-572.051 1130.13,-588.377 1150.56,-600.733"/>
</g>
<!-- 8 -->
<g id="node21" class="node"><title>8</title>
<ellipse fill="none" stroke="black" cx="814.142" cy="-152.819" rx="27" ry="18"/>
<text text-anchor="middle" x="814.142" y="-149.119" font-family="Times New Roman,serif" font-size="14.00">8</text>
</g>
<!-- 8&#45;&#45;Wayne_Pecan_Before -->
<g id="edge22" class="edge"><title>8&#45;&#45;Wayne_Pecan_Before</title>
<path fill="none" stroke="black" d="M816.511,-170.982C820.047,-198.083 826.664,-248.808 830.194,-275.868"/>
</g>
<!-- Wilma_Pecan_Before -->
<g id="node22" class="node"><title>Wilma_Pecan_Before</title>
<ellipse fill="none" stroke="black" cx="820.045" cy="-18.2748" rx="90.1842" ry="18"/>
<text text-anchor="middle" x="820.045" y="-14.5748" font-family="Times New Roman,serif" font-size="14.00">Wilma_Pecan_Before</text>
</g>
<!-- 8&#45;&#45;Wilma_Pecan_Before -->
<g id="edge21" class="edge"><title>8&#45;&#45;Wilma_Pecan_Before</title>
<path fill="none" stroke="black" d="M814.938,-134.674C816.065,-108.995 818.112,-62.3183 819.242,-36.5623"/>
</g>
<!-- 9 -->
<g id="node23" class="node"><title>9</title>
<ellipse fill="none" stroke="black" cx="528.136" cy="-524.185" rx="27" ry="18"/>
<text text-anchor="middle" x="528.136" y="-520.485" font-family="Times New Roman,serif" font-size="14.00">9</text>
</g>
<!-- 9&#45;&#45;Wayne_Pecan_After -->
<g id="edge23" class="edge"><title>9&#45;&#45;Wayne_Pecan_After</title>
<path fill="none" stroke="black" d="M551.076,-514.621C569.186,-507.07 594.858,-496.367 616.132,-487.497"/>
</g>
<!-- Weezie_Pecan_After -->
<g id="node24" class="node"><title>Weezie_Pecan_After</title>
<ellipse fill="none" stroke="black" cx="407.161" cy="-578.515" rx="87.1846" ry="18"/>
<text text-anchor="middle" x="407.161" y="-574.815" font-family="Times New Roman,serif" font-size="14.00">Weezie_Pecan_After</text>
</g>
<!-- 9&#45;&#45;Weezie_Pecan_After -->
<g id="edge24" class="edge"><title>9&#45;&#45;Weezie_Pecan_After</title>
<path fill="none" stroke="black" d="M505.665,-534.277C488.309,-542.071 463.93,-553.019 443.769,-562.074"/>
</g>
<!-- 10 -->
<g id="node25" class="node"><title>10</title>
<ellipse fill="none" stroke="black" cx="282.999" cy="-618.815" rx="27" ry="18"/>
<text text-anchor="middle" x="282.999" y="-615.115" font-family="Times New Roman,serif" font-size="14.00">10</text>
</g>
<!-- 10&#45;&#45;Weezie_Pecan_After -->
<g id="edge25" class="edge"><title>10&#45;&#45;Weezie_Pecan_After</title>
<path fill="none" stroke="black" d="M307.529,-610.853C322.583,-605.967 342.354,-599.549 360.313,-593.72"/>
</g>
<!-- Wilson_Pecan_After -->
<g id="node26" class="node"><title>Wilson_Pecan_After</title>
<ellipse fill="none" stroke="black" cx="160.907" cy="-661.97" rx="87.1846" ry="18"/>
<text text-anchor="middle" x="160.907" y="-658.27" font-family="Times New Roman,serif" font-size="14.00">Wilson_Pecan_After</text>
</g>
<!-- 10&#45;&#45;Wilson_Pecan_After -->
<g id="edge26" class="edge"><title>10&#45;&#45;Wilson_Pecan_After</title>
<path fill="none" stroke="black" d="M258.878,-627.341C243.589,-632.745 223.35,-639.898 205.238,-646.3"/>
</g>
<!-- 11 -->
<g id="node27" class="node"><title>11</title>
<ellipse fill="none" stroke="black" cx="211.815" cy="253.118" rx="27" ry="18"/>
<text text-anchor="middle" x="211.815" y="256.818" font-family="Times New Roman,serif" font-size="14.00">11</text>
</g>
<!-- Wilson_Acorn_Before -->
<g id="node28" class="node"><title>Wilson_Acorn_Before</title>
<ellipse fill="none" stroke="black" cx="150.362" cy="141.194" rx="93.6835" ry="18"/>
<text text-anchor="middle" x="150.362" y="144.894" font-family="Times New Roman,serif" font-size="14.00">Wilson_Acorn_Before</text>
</g>
<!-- 11&#45;&#45;Wilson_Acorn_Before -->
<g id="edge27" class="edge"><title>11&#45;&#45;Wilson_Acorn_Before</title>
<path fill="none" stroke="black" d="M202.482,236.119C191.066,215.327 171.828,180.289 160.191,159.095"/>
</g>
<!-- Weezie_Acorn_Before -->
<g id="node29" class="node"><title>Weezie_Acorn_Before</title>
<ellipse fill="none" stroke="black" cx="254.396" cy="372.605" rx="94.4839" ry="18"/>
<text text-anchor="middle" x="254.396" y="376.305" font-family="Times New Roman,serif" font-size="14.00">Weezie_Acorn_Before</text>
</g>
<!-- 11&#45;&#45;Weezie_Acorn_Before -->
<g id="edge28" class="edge"><title>11&#45;&#45;Weezie_Acorn_Before</title>
<path fill="none" stroke="black" d="M218.098,270.749C226.102,293.21 239.865,331.829 247.948,354.51"/>
</g>
<!-- 12 -->
<g id="node30" class="node"><title>12</title>
<ellipse fill="none" stroke="black" cx="315.551" cy="482.706" rx="27" ry="18"/>
<text text-anchor="middle" x="315.551" y="486.406" font-family="Times New Roman,serif" font-size="14.00">12</text>
</g>
<!-- 12&#45;&#45;Weezie_Acorn_Before -->
<g id="edge29" class="edge"><title>12&#45;&#45;Weezie_Acorn_Before</title>
<path fill="none" stroke="black" d="M305.995,465.503C294.708,445.182 276.013,411.524 264.495,390.786"/>
</g>
<!-- Wilma_Acorn_Before -->
<g id="node31" class="node"><title>Wilma_Acorn_Before</title>
<ellipse fill="none" stroke="black" cx="402.235" cy="573.773" rx="90.9839" ry="18"/>
<text text-anchor="middle" x="402.235" y="577.473" font-family="Times New Roman,serif" font-size="14.00">Wilma_Acorn_Before</text>
</g>
<!-- 12&#45;&#45;Wilma_Acorn_Before -->
<g id="edge30" class="edge"><title>12&#45;&#45;Wilma_Acorn_Before</title>
<path fill="none" stroke="black" d="M330.255,498.155C345.519,514.19 369.36,539.237 385.376,556.063"/>
</g>
<!-- 13 -->
<g id="node32" class="node"><title>13</title>
<ellipse fill="none" stroke="black" cx="84.8942" cy="28.116" rx="27" ry="18"/>
<text text-anchor="middle" x="84.8942" y="31.816" font-family="Times New Roman,serif" font-size="14.00">13</text>
</g>
<!-- 13&#45;&#45;Wayne_Acorn_Before -->
<g id="edge31" class="edge"><title>13&#45;&#45;Wayne_Acorn_Before</title>
<path fill="none" stroke="black" d="M70.0057,12.6841C52.9421,-5.00218 25.0138,-33.9497 6.97402,-52.6478"/>
</g>
<!-- 13&#45;&#45;Wilson_Acorn_Before -->
<g id="edge32" class="edge"><title>13&#45;&#45;Wilson_Acorn_Before</title>
<path fill="none" stroke="black" d="M94.8374,45.29C106.999,66.2964 127.494,101.695 139.891,123.108"/>
</g>
<!-- 14 -->
<g id="node33" class="node"><title>14</title>
<ellipse fill="none" stroke="black" cx="-306.263" cy="-346.153" rx="27" ry="18"/>
<text text-anchor="middle" x="-306.263" y="-342.453" font-family="Times New Roman,serif" font-size="14.00">14</text>
</g>
<!-- 14&#45;&#45;Wayne_Acorn_After -->
<g id="edge34" class="edge"><title>14&#45;&#45;Wayne_Acorn_After</title>
<path fill="none" stroke="black" d="M-283.535,-336.209C-265.789,-328.445 -240.748,-317.488 -220.017,-308.418"/>
</g>
<!-- Weezie_Acorn_After -->
<g id="node34" class="node"><title>Weezie_Acorn_After</title>
<ellipse fill="none" stroke="black" cx="-429.655" cy="-384.903" rx="88.2844" ry="18"/>
<text text-anchor="middle" x="-429.655" y="-381.203" font-family="Times New Roman,serif" font-size="14.00">Weezie_Acorn_After</text>
</g>
<!-- 14&#45;&#45;Weezie_Acorn_After -->
<g id="edge33" class="edge"><title>14&#45;&#45;Weezie_Acorn_After</title>
<path fill="none" stroke="black" d="M-330.936,-353.902C-345.424,-358.452 -364.235,-364.359 -381.544,-369.795"/>
</g>
<!-- 15 -->
<g id="node35" class="node"><title>15</title>
<ellipse fill="none" stroke="black" cx="116.557" cy="-423.662" rx="27" ry="18"/>
<text text-anchor="middle" x="116.557" y="-419.962" font-family="Times New Roman,serif" font-size="14.00">15</text>
</g>
<!-- 15&#45;&#45;Webster_Acorn_After -->
<g id="edge36" class="edge"><title>15&#45;&#45;Webster_Acorn_After</title>
<path fill="none" stroke="black" d="M104.413,-407.231C89.7329,-387.369 65.1138,-354.06 49.9228,-333.507"/>
</g>
<!-- Wilson_Acorn_After -->
<g id="node36" class="node"><title>Wilson_Acorn_After</title>
<ellipse fill="none" stroke="black" cx="184.994" cy="-533.77" rx="87.9851" ry="18"/>
<text text-anchor="middle" x="184.994" y="-530.07" font-family="Times New Roman,serif" font-size="14.00">Wilson_Acorn_After</text>
</g>
<!-- 15&#45;&#45;Wilson_Acorn_After -->
<g id="edge35" class="edge"><title>15&#45;&#45;Wilson_Acorn_After</title>
<path fill="none" stroke="black" d="M126.951,-440.385C139.59,-460.719 160.837,-494.904 173.819,-515.79"/>
</g>
<!-- 16 -->
<g id="node37" class="node"><title>16</title>
<ellipse fill="none" stroke="black" cx="604.95" cy="-35.5288" rx="27" ry="18"/>
<text text-anchor="middle" x="604.95" y="-31.8288" font-family="Times New Roman,serif" font-size="14.00">16</text>
</g>
<!-- 16&#45;&#45;Wayne_Walnut_Before -->
<g id="edge38" class="edge"><title>16&#45;&#45;Wayne_Walnut_Before</title>
<path fill="none" stroke="black" d="M578.064,-38.7856C570.094,-39.7511 560.924,-40.862 551.369,-42.0193"/>
</g>
<!-- 16&#45;&#45;Wayne_Walnut_After -->
<g id="edge37" class="edge"><title>16&#45;&#45;Wayne_Walnut_After</title>
<path fill="none" stroke="black" d="M604.556,-53.739C603.988,-79.9677 602.946,-128.106 602.377,-154.377"/>
</g>
<!-- 17 -->
<g id="node38" class="node"><title>17</title>
<ellipse fill="none" stroke="black" cx="485.358" cy="295.712" rx="27" ry="18"/>
<text text-anchor="middle" x="485.358" y="299.412" font-family="Times New Roman,serif" font-size="14.00">17</text>
</g>
<!-- Weezie_Walnut_After -->
<g id="node39" class="node"><title>Weezie_Walnut_After</title>
<ellipse fill="none" stroke="black" cx="460.549" cy="227.806" rx="90.9839" ry="18"/>
<text text-anchor="middle" x="460.549" y="231.506" font-family="Times New Roman,serif" font-size="14.00">Weezie_Walnut_After</text>
</g>
<!-- 17&#45;&#45;Weezie_Walnut_After -->
<g id="edge39" class="edge"><title>17&#45;&#45;Weezie_Walnut_After</title>
<path fill="none" stroke="black" d="M478.84,277.87C475.222,267.968 470.734,255.685 467.11,245.764"/>
</g>
<!-- Weezie_Walnut_Before -->
<g id="node40" class="node"><title>Weezie_Walnut_Before</title>
<ellipse fill="none" stroke="black" cx="530.093" cy="352.482" rx="96.6831" ry="18"/>
<text text-anchor="middle" x="530.093" y="356.182" font-family="Times New Roman,serif" font-size="14.00">Weezie_Walnut_Before</text>
</g>
<!-- 17&#45;&#45;Weezie_Walnut_Before -->
<g id="edge40" class="edge"><title>17&#45;&#45;Weezie_Walnut_Before</title>
<path fill="none" stroke="black" d="M498.058,311.828C503.637,318.909 510.211,327.251 515.947,334.53"/>
</g>
<!-- 18 -->
<g id="node41" class="node"><title>18</title>
<ellipse fill="none" stroke="black" cx="-180.642" cy="221.712" rx="27" ry="18"/>
<text text-anchor="middle" x="-180.642" y="225.412" font-family="Times New Roman,serif" font-size="14.00">18</text>
</g>
<!-- Wilson_Walnut_After -->
<g id="node42" class="node"><title>Wilson_Walnut_After</title>
<ellipse fill="none" stroke="black" cx="-205.451" cy="153.806" rx="90.9839" ry="18"/>
<text text-anchor="middle" x="-205.451" y="157.506" font-family="Times New Roman,serif" font-size="14.00">Wilson_Walnut_After</text>
</g>
<!-- 18&#45;&#45;Wilson_Walnut_After -->
<g id="edge41" class="edge"><title>18&#45;&#45;Wilson_Walnut_After</title>
<path fill="none" stroke="black" d="M-187.16,203.87C-190.778,193.968 -195.266,181.685 -198.89,171.764"/>
</g>
<!-- Wilson_Walnut_Before -->
<g id="node43" class="node"><title>Wilson_Walnut_Before</title>
<ellipse fill="none" stroke="black" cx="-135.907" cy="278.482" rx="96.6831" ry="18"/>
<text text-anchor="middle" x="-135.907" y="282.182" font-family="Times New Roman,serif" font-size="14.00">Wilson_Walnut_Before</text>
</g>
<!-- 18&#45;&#45;Wilson_Walnut_Before -->
<g id="edge42" class="edge"><title>18&#45;&#45;Wilson_Walnut_Before</title>
<path fill="none" stroke="black" d="M-167.942,237.828C-162.363,244.909 -155.789,253.251 -150.053,260.53"/>
</g>
</g>
</svg>
